<svg width="46" height="47" viewBox="0 0 46 47" fill="none" xmlns="http://www.w3.org/2000/svg">
<path fill-rule="evenodd" clip-rule="evenodd" d="M17.4798 3.33427C17.1181 3.6589 16.7394 3.96412 16.3454 4.24865C15.6625 4.70698 14.8948 5.02323 14.0881 5.18365C13.7375 5.2524 13.3708 5.28219 12.6398 5.33948C10.8042 5.48615 9.88521 5.55948 9.11979 5.8299C8.24436 6.13846 7.44923 6.63934 6.79288 7.29569C6.13653 7.95204 5.63565 8.74717 5.32708 9.6226C5.05667 10.388 4.98333 11.307 4.83667 13.1426C4.81035 13.6278 4.75833 14.1113 4.68083 14.5909C4.52042 15.3976 4.20417 16.1653 3.74583 16.8482C3.54646 17.1461 3.30812 17.4257 2.83146 17.9826C1.6375 19.3851 1.03937 20.0864 0.68875 20.8197C-0.120208 22.5155 -0.120208 24.4864 0.68875 26.1822C1.03937 26.9155 1.6375 27.6168 2.83146 29.0193C3.30812 29.5761 3.54646 29.8557 3.74583 30.1536C4.20417 30.8366 4.52042 31.6043 4.68083 32.4109C4.74958 32.7616 4.77937 33.1282 4.83667 33.8593C4.98333 35.6949 5.05667 36.6139 5.32708 37.3793C5.63565 38.2547 6.13653 39.0498 6.79288 39.7062C7.44923 40.3625 8.24436 40.8634 9.11979 41.172C9.88521 41.4424 10.8042 41.5157 12.6398 41.6624C13.3708 41.7197 13.7375 41.7495 14.0881 41.8182C14.8948 41.9786 15.6625 42.2972 16.3454 42.7532C16.6433 42.9526 16.9229 43.1909 17.4798 43.6676C18.8823 44.8616 19.5835 45.4597 20.3169 45.8103C22.0127 46.6193 23.9835 46.6193 25.6794 45.8103C26.4127 45.4597 27.114 44.8616 28.5165 43.6676C29.0733 43.1909 29.3529 42.9526 29.6508 42.7532C30.3337 42.2949 31.1015 41.9786 31.9081 41.8182C32.2587 41.7495 32.6254 41.7197 33.3565 41.6624C35.1921 41.5157 36.111 41.4424 36.8765 41.172C37.7519 40.8634 38.547 40.3625 39.2034 39.7062C39.8597 39.0498 40.3606 38.2547 40.6692 37.3793C40.9396 36.6139 41.0129 35.6949 41.1596 33.8593C41.2169 33.1282 41.2467 32.7616 41.3154 32.4109C41.4758 31.6043 41.7944 30.8366 42.2504 30.1536C42.4498 29.8557 42.6881 29.5761 43.1648 29.0193C44.3587 27.6168 44.9569 26.9155 45.3075 26.1822C46.1165 24.4864 46.1165 22.5155 45.3075 20.8197C44.9569 20.0864 44.3587 19.3851 43.1648 17.9826C42.8402 17.6209 42.5349 17.2422 42.2504 16.8482C41.7918 16.1654 41.474 15.398 41.3154 14.5909C41.2379 14.1113 41.1859 13.6278 41.1596 13.1426C41.0129 11.307 40.9396 10.388 40.6692 9.6226C40.3606 8.74717 39.8597 7.95204 39.2034 7.29569C38.547 6.63934 37.7519 6.13846 36.8765 5.8299C36.111 5.55948 35.1921 5.48615 33.3565 5.33948C32.8713 5.31316 32.3878 5.26115 31.9081 5.18365C31.101 5.02511 30.3336 4.70725 29.6508 4.24865C29.2568 3.96412 28.8782 3.6589 28.5165 3.33427C27.114 2.14031 26.4127 1.54219 25.6794 1.19156C24.8423 0.790915 23.9261 0.582947 22.9981 0.582947C22.0701 0.582947 21.1539 0.790915 20.3169 1.19156C19.5835 1.54219 18.8823 2.14031 17.4798 3.33427ZM31.7775 14.7239C32.1265 15.0736 32.3225 15.5475 32.3225 16.0416C32.3225 16.5356 32.1265 17.0095 31.7775 17.3593L16.8565 32.2826C16.6864 32.4687 16.4805 32.6184 16.251 32.7226C16.0216 32.8269 15.7733 32.8836 15.5213 32.8893C15.2694 32.895 15.0188 32.8495 14.7849 32.7557C14.551 32.6619 14.3385 32.5216 14.1602 32.3434C13.982 32.1652 13.8418 31.9527 13.7479 31.7187C13.6541 31.4848 13.6087 31.2343 13.6144 30.9823C13.62 30.7303 13.6767 30.4821 13.781 30.2526C13.8853 30.0232 14.035 29.8172 14.221 29.6472L29.1398 14.7261C29.4895 14.3771 29.9634 14.1811 30.4575 14.1811C30.9516 14.1811 31.4255 14.3771 31.7752 14.7261M31.6996 29.7205C31.6996 30.38 31.4376 31.0124 30.9713 31.4787C30.505 31.945 29.8726 32.207 29.2131 32.207C28.5537 32.207 27.9212 31.945 27.4549 31.4787C26.9886 31.0124 26.7267 30.38 26.7267 29.7205C26.7267 29.0611 26.9886 28.4286 27.4549 27.9623C27.9212 27.496 28.5537 27.2341 29.2131 27.2341C29.8726 27.2341 30.505 27.496 30.9713 27.9623C31.4376 28.4286 31.6996 29.0611 31.6996 29.7205ZM16.7808 19.7747C17.4403 19.7747 18.0727 19.5127 18.539 19.0464C19.0053 18.5801 19.2673 17.9477 19.2673 17.2882C19.2673 16.6288 19.0053 15.9963 18.539 15.53C18.0727 15.0637 17.4403 14.8018 16.7808 14.8018C16.1214 14.8018 15.4889 15.0637 15.0226 15.53C14.5563 15.9963 14.2944 16.6288 14.2944 17.2882C14.2944 17.9477 14.5563 18.5801 15.0226 19.0464C15.4889 19.5127 16.1214 19.7747 16.7808 19.7747Z" fill="#1A5FBC"/>
</svg>
