<svg width="50" height="50" viewBox="0 0 50 50" fill="none" xmlns="http://www.w3.org/2000/svg">
<rect x="0.5" y="0.5" width="49" height="49" rx="24.5" stroke="#D8E0E9"/>
<path d="M36.0355 33.9987H33.4077C32.4139 33.9987 32.1145 33.0954 30.333 31.095C28.7762 29.4112 28.1186 29.2019 27.7248 29.2019C27.1801 29.2019 27.0316 29.3699 27.0316 30.2111V32.8628C27.0316 33.58 26.8243 34 25.1546 34C23.5347 33.8779 21.9638 33.3256 20.5714 32.3888C19.1789 31.4519 18.0048 30.1572 17.1456 28.6113C15.1062 25.7614 13.6868 22.4173 13 18.8444C13 18.4025 13.1497 18.0019 13.9005 18.0019H16.526C17.2008 18.0019 17.4438 18.3392 17.7087 19.1184C18.9834 23.3286 21.1587 26.9908 22.0419 26.9908C22.3805 26.9908 22.5279 26.8228 22.5279 25.8756V21.5388C22.4162 19.5603 21.48 19.3936 21.48 18.6777C21.4918 18.4889 21.5688 18.3126 21.6946 18.1864C21.8204 18.0602 21.985 17.994 22.1536 18.0019H26.2808C26.845 18.0019 27.0316 18.3172 27.0316 19.0745V24.9284C27.0316 25.5603 27.2734 25.7696 27.4438 25.7696C27.7824 25.7696 28.0426 25.5603 28.6633 24.865C29.9932 23.0438 31.0801 21.0153 31.8899 18.8431C31.9724 18.5821 32.129 18.3585 32.3355 18.2068C32.542 18.0551 32.7872 17.9836 33.0334 18.0032H35.6601C36.4478 18.0032 36.6147 18.4451 36.4478 19.0757C35.4921 21.4771 34.31 23.7568 32.9217 25.8756C32.6384 26.3602 32.5256 26.6122 32.9217 27.1808C33.182 27.6227 34.1032 28.4859 34.7216 29.3065C35.6221 30.3145 36.3694 31.4801 36.9349 32.7569C37.1606 33.5787 36.7852 33.9987 36.0355 33.9987Z" fill="#727272"/>
<path d="M36.0355 33.9987H33.4077C32.4139 33.9987 32.1145 33.0954 30.333 31.095C28.7762 29.4112 28.1186 29.2019 27.7248 29.2019C27.1801 29.2019 27.0316 29.3699 27.0316 30.2111V32.8628C27.0316 33.58 26.8243 34 25.1546 34C23.5347 33.8779 21.9638 33.3256 20.5714 32.3888C19.1789 31.4519 18.0048 30.1572 17.1456 28.6113C15.1062 25.7614 13.6868 22.4173 13 18.8444C13 18.4025 13.1497 18.0019 13.9005 18.0019H16.526C17.2008 18.0019 17.4438 18.3392 17.7087 19.1184C18.9834 23.3286 21.1587 26.9908 22.0419 26.9908C22.3805 26.9908 22.5279 26.8228 22.5279 25.8756V21.5388C22.4162 19.5603 21.48 19.3936 21.48 18.6777C21.4918 18.4889 21.5688 18.3126 21.6946 18.1864C21.8204 18.0602 21.985 17.994 22.1536 18.0019H26.2808C26.845 18.0019 27.0316 18.3172 27.0316 19.0745V24.9284C27.0316 25.5603 27.2734 25.7696 27.4438 25.7696C27.7824 25.7696 28.0426 25.5603 28.6633 24.865C29.9932 23.0438 31.0801 21.0153 31.8899 18.8431C31.9724 18.5821 32.129 18.3585 32.3355 18.2068C32.542 18.0551 32.7872 17.9836 33.0334 18.0032H35.6601C36.4478 18.0032 36.6147 18.4451 36.4478 19.0757C35.4921 21.4771 34.31 23.7568 32.9217 25.8756C32.6384 26.3602 32.5256 26.6122 32.9217 27.1808C33.182 27.6227 34.1032 28.4859 34.7216 29.3065C35.6221 30.3145 36.3694 31.4801 36.9349 32.7569C37.1606 33.5787 36.7852 33.9987 36.0355 33.9987Z" fill="#727272"/>
</svg>
