<svg width="24" height="24" viewBox="0 0 24 24" fill="none" xmlns="http://www.w3.org/2000/svg">
<path d="M7.78113 16.1837C10.6843 19.0864 14.22 21.3266 17.1026 21.3266C18.3986 21.3266 19.5334 20.8744 20.4476 19.8699C20.9798 19.2771 21.3116 18.5841 21.3116 17.9014C21.3116 17.3991 21.1204 16.917 20.6387 16.5754L17.5646 14.3854C17.0927 14.064 16.701 13.9033 16.3393 13.9033C15.8773 13.9033 15.4753 14.1647 15.0133 14.6164L14.3001 15.3197C14.2502 15.3703 14.1909 15.4105 14.1254 15.4381C14.06 15.4656 13.9897 15.48 13.9187 15.4804C13.758 15.4804 13.617 15.4204 13.5068 15.3699C12.894 15.0386 11.8294 14.1244 10.8347 13.14C9.85027 12.1556 8.93613 11.091 8.6147 10.4683C8.54547 10.3454 8.50764 10.2073 8.50456 10.0663C8.50456 9.936 8.54442 9.80486 8.65499 9.69472L9.35784 8.96186C9.81042 8.49943 10.0714 8.09743 10.0714 7.63543C10.0714 7.27415 9.9107 6.88243 9.57941 6.41015L7.41942 3.36643C7.06799 2.88429 6.57599 2.67343 6.03342 2.67343C5.37042 2.67343 4.67742 2.97472 4.09499 3.54772C3.12042 4.482 2.68842 5.63657 2.68842 6.912C2.68842 9.795 4.88827 13.2909 7.78113 16.1837Z" fill="#121212"/>
</svg>
