<svg width="117" height="20" viewBox="0 0 117 20" fill="none" xmlns="http://www.w3.org/2000/svg">
<path d="M18.8039 8.97262L15.2882 12.0062L16.3593 16.5429C16.4184 16.7892 16.4032 17.0475 16.3156 17.2851C16.228 17.5227 16.0719 17.7291 15.8671 17.8781C15.6623 18.027 15.4179 18.112 15.1648 18.1221C14.9118 18.1323 14.6614 18.0672 14.4453 17.9351L10.5 15.507L6.5523 17.9351C6.33622 18.0664 6.08613 18.1309 5.8335 18.1204C5.58087 18.1098 5.337 18.0248 5.13261 17.8759C4.92822 17.7271 4.77243 17.5211 4.68488 17.2839C4.59732 17.0467 4.58191 16.7889 4.64058 16.5429L5.71558 12.0062L2.19995 8.97262C2.00878 8.80739 1.87052 8.58951 1.80244 8.34617C1.73436 8.10284 1.73947 7.84484 1.81715 7.60439C1.89483 7.36395 2.04162 7.15172 2.23919 6.9942C2.43677 6.83669 2.67637 6.74087 2.92808 6.71871L7.53745 6.34684L9.31558 2.04371C9.41182 1.8092 9.57563 1.6086 9.78618 1.46742C9.99673 1.32624 10.2445 1.25085 10.498 1.25085C10.7515 1.25085 10.9993 1.32624 11.2098 1.46742C11.4204 1.6086 11.5842 1.8092 11.6804 2.04371L13.4578 6.34684L18.0671 6.71871C18.3193 6.74004 18.5596 6.83533 18.7579 6.99263C18.9562 7.14992 19.1037 7.36224 19.1819 7.60298C19.26 7.84371 19.2654 8.10216 19.1973 8.34594C19.1292 8.58972 18.9907 8.80799 18.7992 8.9734L18.8039 8.97262Z" fill="#FFBB00"/>
<path d="M42.8039 8.97262L39.2882 12.0062L40.3593 16.5429C40.4184 16.7892 40.4032 17.0475 40.3156 17.2851C40.228 17.5227 40.0719 17.7291 39.8671 17.8781C39.6623 18.027 39.4179 18.112 39.1648 18.1221C38.9118 18.1323 38.6614 18.0672 38.4453 17.9351L34.5 15.507L30.5523 17.9351C30.3362 18.0664 30.0861 18.1309 29.8335 18.1204C29.5809 18.1098 29.337 18.0248 29.1326 17.8759C28.9282 17.7271 28.7724 17.5211 28.6849 17.2839C28.5973 17.0467 28.5819 16.7889 28.6406 16.5429L29.7156 12.0062L26.2 8.97262C26.0088 8.80739 25.8705 8.58951 25.8024 8.34617C25.7344 8.10284 25.7395 7.84484 25.8172 7.60439C25.8948 7.36395 26.0416 7.15172 26.2392 6.9942C26.4368 6.83669 26.6764 6.74087 26.9281 6.71871L31.5375 6.34684L33.3156 2.04371C33.4118 1.8092 33.5756 1.6086 33.7862 1.46742C33.9967 1.32624 34.2445 1.25085 34.498 1.25085C34.7515 1.25085 34.9993 1.32624 35.2098 1.46742C35.4204 1.6086 35.5842 1.8092 35.6804 2.04371L37.4578 6.34684L42.0671 6.71871C42.3193 6.74004 42.5596 6.83533 42.7579 6.99263C42.9562 7.14992 43.1037 7.36224 43.1819 7.60298C43.26 7.84371 43.2654 8.10216 43.1973 8.34594C43.1292 8.58972 42.9907 8.80799 42.7992 8.9734L42.8039 8.97262Z" fill="#FFBB00"/>
<path d="M66.8039 8.97262L63.2882 12.0062L64.3593 16.5429C64.4184 16.7892 64.4032 17.0475 64.3156 17.2851C64.228 17.5227 64.0719 17.7291 63.8671 17.8781C63.6623 18.027 63.4179 18.112 63.1648 18.1221C62.9118 18.1323 62.6614 18.0672 62.4453 17.9351L58.5 15.507L54.5523 17.9351C54.3362 18.0664 54.0861 18.1309 53.8335 18.1204C53.5809 18.1098 53.337 18.0248 53.1326 17.8759C52.9282 17.7271 52.7724 17.5211 52.6849 17.2839C52.5973 17.0467 52.5819 16.7889 52.6406 16.5429L53.7156 12.0062L50.2 8.97262C50.0088 8.80739 49.8705 8.58951 49.8024 8.34617C49.7344 8.10284 49.7395 7.84484 49.8172 7.60439C49.8948 7.36395 50.0416 7.15172 50.2392 6.9942C50.4368 6.83669 50.6764 6.74087 50.9281 6.71871L55.5375 6.34684L57.3156 2.04371C57.4118 1.8092 57.5756 1.6086 57.7862 1.46742C57.9967 1.32624 58.2445 1.25085 58.498 1.25085C58.7515 1.25085 58.9993 1.32624 59.2098 1.46742C59.4204 1.6086 59.5842 1.8092 59.6804 2.04371L61.4578 6.34684L66.0671 6.71871C66.3193 6.74004 66.5596 6.83533 66.7579 6.99263C66.9562 7.14992 67.1037 7.36224 67.1819 7.60298C67.26 7.84371 67.2654 8.10216 67.1973 8.34594C67.1292 8.58972 66.9907 8.80799 66.7992 8.9734L66.8039 8.97262Z" fill="#FFBB00"/>
<path d="M90.8039 8.97262L87.2882 12.0062L88.3593 16.5429C88.4184 16.7892 88.4032 17.0475 88.3156 17.2851C88.228 17.5227 88.0719 17.7291 87.8671 17.8781C87.6623 18.027 87.4179 18.112 87.1648 18.1221C86.9118 18.1323 86.6614 18.0672 86.4453 17.9351L82.5 15.507L78.5523 17.9351C78.3362 18.0664 78.0861 18.1309 77.8335 18.1204C77.5809 18.1098 77.337 18.0248 77.1326 17.8759C76.9282 17.7271 76.7724 17.5211 76.6849 17.2839C76.5973 17.0467 76.5819 16.7889 76.6406 16.5429L77.7156 12.0062L74.2 8.97262C74.0088 8.80739 73.8705 8.58951 73.8024 8.34617C73.7344 8.10284 73.7395 7.84484 73.8172 7.60439C73.8948 7.36395 74.0416 7.15172 74.2392 6.9942C74.4368 6.83669 74.6764 6.74087 74.9281 6.71871L79.5375 6.34684L81.3156 2.04371C81.4118 1.8092 81.5756 1.6086 81.7862 1.46742C81.9967 1.32624 82.2445 1.25085 82.498 1.25085C82.7515 1.25085 82.9993 1.32624 83.2098 1.46742C83.4204 1.6086 83.5842 1.8092 83.6804 2.04371L85.4578 6.34684L90.0671 6.71871C90.3193 6.74004 90.5596 6.83533 90.7579 6.99263C90.9562 7.14992 91.1037 7.36224 91.1819 7.60298C91.26 7.84371 91.2654 8.10216 91.1973 8.34594C91.1292 8.58972 90.9907 8.80799 90.7992 8.9734L90.8039 8.97262Z" fill="#FFBB00"/>
<path d="M114.804 8.97262L111.288 12.0062L112.359 16.5429C112.418 16.7892 112.403 17.0475 112.316 17.2851C112.228 17.5227 112.072 17.7291 111.867 17.8781C111.662 18.027 111.418 18.112 111.165 18.1221C110.912 18.1323 110.661 18.0672 110.445 17.9351L106.5 15.507L102.552 17.9351C102.336 18.0664 102.086 18.1309 101.833 18.1204C101.581 18.1098 101.337 18.0248 101.133 17.8759C100.928 17.7271 100.772 17.5211 100.685 17.2839C100.597 17.0467 100.582 16.7889 100.641 16.5429L101.716 12.0062L98.2 8.97262C98.0088 8.80739 97.8705 8.58951 97.8024 8.34617C97.7344 8.10284 97.7395 7.84484 97.8172 7.60439C97.8948 7.36395 98.0416 7.15172 98.2392 6.9942C98.4368 6.83669 98.6764 6.74087 98.9281 6.71871L103.537 6.34684L105.316 2.04371C105.412 1.8092 105.576 1.6086 105.786 1.46742C105.997 1.32624 106.244 1.25085 106.498 1.25085C106.751 1.25085 106.999 1.32624 107.21 1.46742C107.42 1.6086 107.584 1.8092 107.68 2.04371L109.458 6.34684L114.067 6.71871C114.319 6.74004 114.56 6.83533 114.758 6.99263C114.956 7.14992 115.104 7.36224 115.182 7.60298C115.26 7.84371 115.265 8.10216 115.197 8.34594C115.129 8.58972 114.991 8.80799 114.799 8.9734L114.804 8.97262Z" fill="#FFBB00"/>
</svg>
