<svg width="51" height="50" viewBox="0 0 51 50" fill="none" xmlns="http://www.w3.org/2000/svg">
<path d="M34.3548 46.875C36.3684 46.875 38.0007 45.2427 38.0007 43.2292C38.0007 41.2156 36.3684 39.5833 34.3548 39.5833C32.3413 39.5833 30.709 41.2156 30.709 43.2292C30.709 45.2427 32.3413 46.875 34.3548 46.875Z" fill="#D8E0E9"/>
<path d="M17.6868 46.875C19.7004 46.875 21.3327 45.2427 21.3327 43.2292C21.3327 41.2156 19.7004 39.5833 17.6868 39.5833C15.6733 39.5833 14.041 41.2156 14.041 43.2292C14.041 45.2427 15.6733 46.875 17.6868 46.875Z" fill="#D8E0E9"/>
<path d="M10.5827 8.20834L10.166 13.3125C10.0827 14.2917 10.8535 15.1042 11.8327 15.1042H43.7285C44.6035 15.1042 45.3327 14.4375 45.3952 13.5625C45.666 9.87501 42.8535 6.875 39.166 6.875H13.5618C13.3535 5.95834 12.9368 5.08334 12.291 4.35417C11.2493 3.25 9.79102 2.60417 8.29102 2.60417H4.66602C3.81185 2.60417 3.10352 3.31251 3.10352 4.16667C3.10352 5.02084 3.81185 5.72917 4.66602 5.72917H8.29102C8.93685 5.72917 9.54102 6 9.97852 6.45834C10.416 6.9375 10.6243 7.56251 10.5827 8.20834Z" fill="#D8E0E9"/>
<path d="M43.2299 18.2292H11.2716C10.3966 18.2292 9.68826 18.8958 9.60493 19.75L8.85493 28.8125C8.56326 32.375 11.3549 35.4167 14.9174 35.4167H38.0841C41.2091 35.4167 43.9591 32.8542 44.1883 29.7292L44.8758 20C44.9591 19.0417 44.2091 18.2292 43.2299 18.2292Z" fill="#D8E0E9"/>
</svg>
