<svg width="57" height="47" viewBox="0 0 57 47" fill="none" xmlns="http://www.w3.org/2000/svg">
<path d="M54.4929 20.5626L48.9587 11.3115C48.5537 10.6397 47.9844 10.0839 47.3053 9.69712C46.6263 9.31037 45.8601 9.10563 45.0801 9.10248H40.7352V8.45231C40.7352 7.51338 40.5513 6.58369 40.1938 5.71663C39.8363 4.84956 39.3124 4.06222 38.6521 3.39981C37.3173 2.05941 35.51 1.30644 33.6257 1.3057H7.76068C6.35294 1.29631 4.97444 1.71048 3.80161 2.4952C2.62879 3.27993 1.71499 4.39951 1.17718 5.71064C0.821341 6.57986 0.641633 7.51204 0.648634 8.45231V31.8426C0.650094 32.9412 1.04644 34.002 1.7643 34.8286C2.48216 35.6553 3.47292 36.1919 4.55313 36.339C4.54104 36.574 4.54104 36.8081 4.55313 37.0414C4.54392 38.1488 4.75673 39.2467 5.17879 40.2693C5.60085 41.2918 6.22347 42.2179 7.00932 42.9921C7.78045 43.801 8.7035 44.4472 9.72476 44.8932C10.746 45.3393 11.8451 45.5762 12.958 45.5901C15.1793 45.5698 17.3044 44.6738 18.8783 43.0939C20.4507 41.5165 21.3441 39.379 21.3655 37.1432C21.3788 36.9276 21.3788 36.7113 21.3655 36.4956H35.6389C35.6256 36.7113 35.6256 36.9276 35.6389 37.1432C35.6293 38.2511 35.8419 39.3495 36.264 40.3725C36.6861 41.3955 37.3089 42.3221 38.095 43.0965C38.8668 43.906 39.7907 44.5526 40.8129 44.9987C41.8351 45.4447 42.9351 45.6813 44.049 45.6946C46.2702 45.6743 48.3953 44.7782 49.9692 43.1984C51.5406 41.6206 52.4331 39.4831 52.4539 37.2476C52.4673 37.0311 52.4673 36.814 52.4539 36.5975H54.4126C54.9236 36.5901 55.4118 36.3828 55.774 36.0193C56.1361 35.6558 56.3438 35.1646 56.3532 34.6496V27.14C56.3532 24.8161 55.708 22.5393 54.4929 20.5626ZM17.4585 37.0387C17.4592 37.6356 17.3405 38.2265 17.1095 38.7761C16.8784 39.3257 16.5398 39.8227 16.1138 40.2374C15.2518 41.0628 14.1082 41.523 12.9192 41.523C11.7302 41.523 10.5865 41.0628 9.72459 40.2374C9.30445 39.8149 8.97176 39.3125 8.74581 38.7594C8.51987 38.2062 8.40519 37.6134 8.40841 37.0153C8.39623 36.3976 8.52012 35.785 8.77113 35.2214C9.11313 34.4041 9.70127 33.7148 10.45 33.2448C11.2159 32.7347 12.118 32.4723 13.0358 32.4928C13.9115 32.4928 14.7665 32.7539 15.492 33.2448C16.2355 33.7226 16.8211 34.4094 17.176 35.2214C17.43 35.7828 17.5647 36.3964 17.5621 37.0153L17.4585 37.0387ZM25.8634 24.0459H12.9347C12.2503 24.0452 11.5939 23.7716 11.1089 23.2848C10.624 22.798 10.3498 22.1376 10.3464 21.4478C10.3457 21.1056 10.4122 20.7667 10.5419 20.4505C10.6717 20.1344 10.8622 19.8472 11.1025 19.6055C11.3428 19.3638 11.6282 19.1723 11.9422 19.0422C12.2562 18.9121 12.5926 18.8458 12.9321 18.8471H25.8634C26.5478 18.8485 27.2039 19.1228 27.6884 19.6101C28.1729 20.0973 28.4464 20.758 28.4491 21.4478C28.4494 21.7897 28.3827 22.1284 28.2528 22.4443C28.1229 22.7601 27.9323 23.047 27.692 23.2885C27.4518 23.5299 27.1665 23.7211 26.8527 23.8511C26.5389 23.981 26.2027 24.0472 25.8634 24.0459ZM25.8634 15.1054H12.9347C12.2503 15.1047 11.5939 14.8311 11.1089 14.3443C10.624 13.8576 10.3498 13.1972 10.3464 12.5074C10.3461 12.1654 10.4128 11.8268 10.5427 11.5109C10.6726 11.195 10.8632 10.9081 11.1035 10.6667C11.3437 10.4253 11.629 10.2341 11.9428 10.1041C12.2566 9.97414 12.5928 9.90793 12.9321 9.90931H25.8634C26.5474 9.91068 27.2031 10.1846 27.6875 10.6713C28.1719 11.158 28.4457 11.818 28.4491 12.5074C28.4494 12.8493 28.3827 13.1879 28.2528 13.5038C28.1229 13.8197 27.9323 14.1066 27.692 14.348C27.4518 14.5894 27.1665 14.7806 26.8527 14.9106C26.5389 15.0406 26.2027 15.1068 25.8634 15.1054ZM48.4924 37.0387C48.4928 37.6358 48.3737 38.2268 48.1422 38.7764C47.9107 39.326 47.5716 39.8229 47.1451 40.2374C46.2833 41.062 45.1402 41.5218 43.9518 41.5218C42.7634 41.5218 41.6203 41.062 40.7585 40.2374C40.3379 39.8151 40.0047 39.3128 39.7783 38.7597C39.5519 38.2065 39.4368 37.6136 39.4397 37.0153C39.4287 36.0685 39.7294 35.1447 40.2947 34.3885C40.9321 33.5346 41.8467 32.9263 42.8805 32.673H43.5282C43.6466 32.6446 43.7699 32.6446 43.8883 32.673H44.4065C45.1915 32.7644 45.9403 33.0594 46.5777 33.532C47.2176 34.0046 47.7177 34.6418 48.026 35.3781C48.2825 35.9395 48.4146 36.5531 48.4146 37.1693L48.4924 37.0387Z" fill="#1A5FBC"/>
<path d="M43.9409 32.4664C43.8216 32.4376 43.6973 32.4376 43.5781 32.4664H43.9409Z" fill="#1A5FBC"/>
</svg>
