<svg width="65" height="47" viewBox="0 0 65 47" fill="none" xmlns="http://www.w3.org/2000/svg">
<g clip-path="url(#clip0_51_14539)">
<path d="M12.0106 0.582947C8.97956 0.582947 6.07266 1.79455 3.92938 3.95122C1.78611 6.10789 0.582031 9.03296 0.582031 12.0829V14.3829H64.582V12.0829C64.582 9.03296 63.378 6.10789 61.2347 3.95122C59.0914 1.79455 56.1845 0.582947 53.1535 0.582947H12.0106ZM64.582 18.9829H0.582031V35.0829C0.582031 38.1329 1.78611 41.058 3.92938 43.2147C6.07266 45.3713 8.97956 46.5829 12.0106 46.5829H53.1535C56.1845 46.5829 59.0914 45.3713 61.2347 43.2147C63.378 41.058 64.582 38.1329 64.582 35.0829V18.9829ZM44.0106 32.7829H53.1535C53.7597 32.7829 54.3411 33.0253 54.7697 33.4566C55.1984 33.8879 55.4392 34.4729 55.4392 35.0829C55.4392 35.6929 55.1984 36.278 54.7697 36.7093C54.3411 37.1406 53.7597 37.3829 53.1535 37.3829H44.0106C43.4044 37.3829 42.823 37.1406 42.3944 36.7093C41.9657 36.278 41.7249 35.6929 41.7249 35.0829C41.7249 34.4729 41.9657 33.8879 42.3944 33.4566C42.823 33.0253 43.4044 32.7829 44.0106 32.7829Z" fill="#1A5FBC"/>
</g>
<defs>
<clipPath id="clip0_51_14539">
<rect width="64" height="46" fill="white" transform="translate(0.582031 0.582947)"/>
</clipPath>
</defs>
</svg>
