<svg width="26" height="18" viewBox="0 0 26 18" fill="none" xmlns="http://www.w3.org/2000/svg">
<path d="M1.44444 18H24.5556C25.35 18 26 17.325 26 16.5C26 15.675 25.35 15 24.5556 15H1.44444C0.65 15 0 15.675 0 16.5C0 17.325 0.65 18 1.44444 18ZM1.44444 10.5H24.5556C25.35 10.5 26 9.825 26 9C26 8.175 25.35 7.5 24.5556 7.5H1.44444C0.65 7.5 0 8.175 0 9C0 9.825 0.65 10.5 1.44444 10.5ZM0 1.5C0 2.325 0.65 3 1.44444 3H24.5556C25.35 3 26 2.325 26 1.5C26 0.675 25.35 0 24.5556 0H1.44444C0.65 0 0 0.675 0 1.5Z" fill="#1A5FBC"/>
</svg>
