<svg width="24" height="24" viewBox="0 0 24 24" fill="none" xmlns="http://www.w3.org/2000/svg">
<path d="M19.5 5.5L19.098 12.006M4.5 5.5L5.105 15.525C5.259 18.092 5.337 19.375 5.979 20.299C6.296 20.755 6.705 21.141 7.179 21.43C7.85 21.84 8.681 21.963 10 22M20 15L13 22M20 22L13 15M3 5.5H21M16.056 5.5L15.373 4.092C14.92 3.156 14.693 2.689 14.302 2.397C14.2151 2.33232 14.1232 2.27479 14.027 2.225C13.594 2 13.074 2 12.035 2C10.969 2 10.436 2 9.995 2.234C9.89752 2.28621 9.80453 2.34642 9.717 2.414C9.322 2.717 9.101 3.202 8.659 4.171L8.053 5.5" stroke="#1A5FBC" stroke-width="2" stroke-linecap="round" stroke-linejoin="round"/>
</svg>
