<svg width="50" height="50" viewBox="0 0 50 50" fill="none" xmlns="http://www.w3.org/2000/svg">
<rect x="0.5" y="0.5" width="49" height="49" rx="24.5" stroke="#D8E0E9"/>
<path fill-rule="evenodd" clip-rule="evenodd" d="M25 15.5C26.026 15.5 27.0784 15.5266 28.0984 15.5703L29.3032 15.6284L30.4564 15.6974L31.5364 15.7713L32.5228 15.8488C33.5934 15.9311 34.601 16.392 35.3679 17.1505C36.1349 17.9089 36.6122 18.9162 36.7156 19.995L36.7636 20.5098L36.8536 21.612C36.9376 22.7543 37 23.9994 37 25.1901C37 26.3808 36.9376 27.626 36.8536 28.7682L36.7636 29.8704L36.7156 30.3852C36.6121 31.4642 36.1347 32.4717 35.3675 33.2301C34.6003 33.9886 33.5924 34.4494 32.5216 34.5314L31.5376 34.6077L30.4576 34.6828L29.3032 34.7518L28.0984 34.81C27.0662 34.8551 26.0332 34.8785 25 34.8802C23.9668 34.8785 22.9338 34.8551 21.9016 34.81L20.6968 34.7518L19.5436 34.6828L18.4636 34.6077L17.4772 34.5314C16.4066 34.4492 15.399 33.9882 14.6321 33.2298C13.8651 32.4713 13.3878 31.464 13.2844 30.3852L13.2364 29.8704L13.1464 28.7682C13.055 27.5777 13.0062 26.3842 13 25.1901C13 23.9994 13.0624 22.7543 13.1464 21.612L13.2364 20.5098L13.2844 19.995C13.3878 18.9164 13.8649 17.9093 14.6316 17.1508C15.3983 16.3924 16.4056 15.9314 17.476 15.8488L18.4612 15.7713L19.5412 15.6974L20.6956 15.6284L21.9004 15.5703C22.933 15.5251 23.9664 15.5017 25 15.5ZM22.6 22.2528V28.1274C22.6 28.687 23.2 29.0359 23.68 28.7573L28.72 25.82C28.8297 25.7563 28.9208 25.6645 28.9841 25.5539C29.0475 25.4433 29.0808 25.3179 29.0808 25.1901C29.0808 25.0624 29.0475 24.9369 28.9841 24.8263C28.9208 24.7158 28.8297 24.624 28.72 24.5603L23.68 21.6242C23.5705 21.5603 23.4463 21.5268 23.3199 21.5268C23.1935 21.5268 23.0693 21.5604 22.9598 21.6243C22.8503 21.6881 22.7594 21.7799 22.6963 21.8905C22.6331 22.001 22.5999 22.1264 22.6 22.254V22.2528Z" fill="black"/>
<path fill-rule="evenodd" clip-rule="evenodd" d="M25 15.5C26.026 15.5 27.0784 15.5266 28.0984 15.5703L29.3032 15.6284L30.4564 15.6974L31.5364 15.7713L32.5228 15.8488C33.5934 15.9311 34.601 16.392 35.3679 17.1505C36.1349 17.9089 36.6122 18.9162 36.7156 19.995L36.7636 20.5098L36.8536 21.612C36.9376 22.7543 37 23.9994 37 25.1901C37 26.3808 36.9376 27.626 36.8536 28.7682L36.7636 29.8704L36.7156 30.3852C36.6121 31.4642 36.1347 32.4717 35.3675 33.2301C34.6003 33.9886 33.5924 34.4494 32.5216 34.5314L31.5376 34.6077L30.4576 34.6828L29.3032 34.7518L28.0984 34.81C27.0662 34.8551 26.0332 34.8785 25 34.8802C23.9668 34.8785 22.9338 34.8551 21.9016 34.81L20.6968 34.7518L19.5436 34.6828L18.4636 34.6077L17.4772 34.5314C16.4066 34.4492 15.399 33.9882 14.6321 33.2298C13.8651 32.4713 13.3878 31.464 13.2844 30.3852L13.2364 29.8704L13.1464 28.7682C13.055 27.5777 13.0062 26.3842 13 25.1901C13 23.9994 13.0624 22.7543 13.1464 21.612L13.2364 20.5098L13.2844 19.995C13.3878 18.9164 13.8649 17.9093 14.6316 17.1508C15.3983 16.3924 16.4056 15.9314 17.476 15.8488L18.4612 15.7713L19.5412 15.6974L20.6956 15.6284L21.9004 15.5703C22.933 15.5251 23.9664 15.5017 25 15.5ZM22.6 22.2528V28.1274C22.6 28.687 23.2 29.0359 23.68 28.7573L28.72 25.82C28.8297 25.7563 28.9208 25.6645 28.9841 25.5539C29.0475 25.4433 29.0808 25.3179 29.0808 25.1901C29.0808 25.0624 29.0475 24.9369 28.9841 24.8263C28.9208 24.7158 28.8297 24.624 28.72 24.5603L23.68 21.6242C23.5705 21.5603 23.4463 21.5268 23.3199 21.5268C23.1935 21.5268 23.0693 21.5604 22.9598 21.6243C22.8503 21.6881 22.7594 21.7799 22.6963 21.8905C22.6331 22.001 22.5999 22.1264 22.6 22.254V22.2528Z" fill="#727272"/>
</svg>
