<svg width="36" height="46" viewBox="0 0 36 46" fill="none" xmlns="http://www.w3.org/2000/svg">
<g clip-path="url(#clip0_45_14614)">
<path fill-rule="evenodd" clip-rule="evenodd" d="M1.98712 2.42121C-0.410156 5.1509 -0.410156 9.54732 -0.410156 18.3378V27.6621C-0.410156 36.4527 -0.410156 40.8491 1.98712 43.5788C4.38439 46.3085 8.24007 46.3108 15.9535 46.3108H20.0444C27.7578 46.3108 31.6155 46.3108 34.0108 43.5788C36.406 40.8467 36.408 36.4527 36.408 27.6621V18.3378C36.408 9.54732 36.408 5.1509 34.0108 2.42121C31.6135 -0.308491 27.7578 -0.310822 20.0444 -0.310822H15.9535C8.24007 -0.310822 4.38234 -0.310822 1.98712 2.42121ZM9.81712 16.5895C9.41025 16.5895 9.02005 16.7737 8.73235 17.1016C8.44465 17.4295 8.28303 17.8741 8.28303 18.3378C8.28303 18.8015 8.44465 19.2462 8.73235 19.5741C9.02005 19.9019 9.41025 20.0861 9.81712 20.0861H26.1808C26.5876 20.0861 26.9778 19.9019 27.2655 19.5741C27.5532 19.2462 27.7148 18.8015 27.7148 18.3378C27.7148 17.8741 27.5532 17.4295 27.2655 17.1016C26.9778 16.7737 26.5876 16.5895 26.1808 16.5895H9.81712ZM9.81712 25.9138C9.41025 25.9138 9.02005 26.098 8.73235 26.4259C8.44465 26.7538 8.28303 27.1985 8.28303 27.6621C8.28303 28.1258 8.44465 28.5705 8.73235 28.8984C9.02005 29.2263 9.41025 29.4105 9.81712 29.4105H20.0444C20.4513 29.4105 20.8415 29.2263 21.1292 28.8984C21.4169 28.5705 21.5785 28.1258 21.5785 27.6621C21.5785 27.1985 21.4169 26.7538 21.1292 26.4259C20.8415 26.098 20.4513 25.9138 20.0444 25.9138H9.81712Z" fill="#1A5FBC"/>
</g>
<defs>
<clipPath id="clip0_45_14614">
<rect width="36" height="46" fill="white"/>
</clipPath>
</defs>
</svg>
