<svg width="161" height="38" viewBox="0 0 161 38" fill="none" xmlns="http://www.w3.org/2000/svg">
<path d="M16.1203 2.60039L2.32106 16.3996C0.884925 17.8358 0.884925 20.1642 2.32106 21.6004L16.1203 35.3996C17.5565 36.8358 19.8849 36.8358 21.321 35.3996L35.1203 21.6004C36.5564 20.1642 36.5564 17.8358 35.1203 16.3996L21.321 2.60038C19.8849 1.16424 17.5565 1.16424 16.1203 2.60039Z" fill="#2B2D32"/>
<path d="M18.7635 29.8818C24.7732 29.8818 29.6451 25.0099 29.6451 19.0002C29.6451 12.9904 24.7732 8.11853 18.7635 8.11853C12.7537 8.11853 7.88184 12.9904 7.88184 19.0002C7.88184 25.0099 12.7537 29.8818 18.7635 29.8818Z" fill="#FCFCFC"/>
<path d="M21.983 12.1995H15.6394C13.6084 12.1995 11.9619 13.8459 11.9619 15.8769V22.2206C11.9619 24.2516 13.6084 25.898 15.6394 25.898H21.983C24.014 25.898 25.6605 24.2516 25.6605 22.2206V15.8769C25.6605 13.8459 24.014 12.1995 21.983 12.1995Z" fill="#2B2D32"/>
<path d="M18.7444 23.7234C21.3631 23.7234 23.4859 21.6006 23.4859 18.982C23.4859 16.3633 21.3631 14.2405 18.7444 14.2405C16.1258 14.2405 14.0029 16.3633 14.0029 18.982C14.0029 21.6006 16.1258 23.7234 18.7444 23.7234Z" fill="#FCFCFC"/>
<path d="M18.0299 17.6938L17.5904 18.1332C17.1117 18.6119 17.1117 19.3881 17.5904 19.8668L18.0299 20.3062C18.5086 20.785 19.2847 20.785 19.7635 20.3062L20.2029 19.8668C20.6816 19.3881 20.6816 18.6119 20.2029 18.1332L19.7635 17.6938C19.2847 17.215 18.5086 17.215 18.0299 17.6938Z" fill="#2B2D32"/>
<path d="M47.9347 18.802V23.518H45.7207V10.918C46.3447 10.918 47.0227 10.912 47.7547 10.9C48.4867 10.888 49.0867 10.882 49.5547 10.882C52.6027 10.882 54.1267 12.178 54.1267 14.77C54.1267 15.73 53.8807 16.522 53.3887 17.146C52.8967 17.746 52.3327 18.154 51.6967 18.37L55.6387 23.518H52.9567L49.4827 18.802H47.9347ZM49.4467 12.952C49.3867 12.952 49.2907 12.958 49.1587 12.97C49.0267 12.97 48.8407 12.976 48.6007 12.988H47.9347V16.732H49.3747C50.0827 16.732 50.6587 16.558 51.1027 16.21C51.5587 15.862 51.7867 15.388 51.7867 14.788C51.7867 13.564 51.0067 12.952 49.4467 12.952ZM62.5897 21.25L63.1837 22.708C62.3797 23.38 61.3477 23.716 60.0877 23.716C58.7917 23.716 57.7357 23.326 56.9197 22.546C56.1277 21.778 55.7317 20.752 55.7317 19.468C55.7317 18.268 56.1217 17.26 56.9017 16.444C57.6817 15.628 58.7197 15.22 60.0157 15.22C61.0837 15.22 61.9897 15.574 62.7337 16.282C63.4777 16.99 63.8497 17.89 63.8497 18.982C63.8497 19.462 63.8077 19.834 63.7237 20.098H57.8747C57.9587 20.686 58.2167 21.148 58.6487 21.484C59.0927 21.82 59.6447 21.988 60.3047 21.988C61.2047 21.988 61.9667 21.742 62.5907 21.25H62.5897ZM59.9257 16.948C58.7497 16.948 58.0417 17.536 57.8017 18.712H61.7797C61.7917 18.196 61.6237 17.776 61.2757 17.452C60.9397 17.116 60.4897 16.948 59.9257 16.948ZM73.2407 27.118H71.1707V23.104C70.5802 23.5017 69.8847 23.7148 69.1727 23.716C67.8887 23.716 66.8627 23.332 66.0947 22.564C65.3387 21.784 64.9607 20.752 64.9607 19.468C64.9607 18.256 65.3987 17.248 66.2747 16.444C67.1627 15.628 68.2727 15.22 69.6047 15.22C70.9967 15.22 72.2087 15.544 73.2407 16.192V27.118ZM69.4427 21.79C70.1387 21.79 70.7147 21.544 71.1707 21.052V17.56C70.6307 17.296 70.1027 17.164 69.5867 17.164C68.8427 17.164 68.2547 17.392 67.8227 17.848C67.3907 18.292 67.1747 18.862 67.1747 19.558C67.1747 20.206 67.3787 20.74 67.7867 21.16C68.2067 21.58 68.7587 21.79 69.4427 21.79ZM80.7747 15.418H82.8447V23.518H80.7747V22.528C80.1267 23.32 79.2627 23.716 78.1827 23.716C77.3187 23.716 76.6287 23.428 76.1127 22.852C75.5967 22.276 75.3387 21.448 75.3387 20.368V15.418H77.4087V19.936C77.4087 21.172 77.9247 21.79 78.9567 21.79C79.6647 21.79 80.2707 21.46 80.7747 20.8V15.418ZM91.5047 21.25L92.0987 22.708C91.2947 23.38 90.2627 23.716 89.0027 23.716C87.7067 23.716 86.6507 23.326 85.8347 22.546C85.0427 21.778 84.6467 20.752 84.6467 19.468C84.6467 18.268 85.0367 17.26 85.8167 16.444C86.5967 15.628 87.6347 15.22 88.9307 15.22C89.9987 15.22 90.9047 15.574 91.6487 16.282C92.3927 16.99 92.7647 17.89 92.7647 18.982C92.7647 19.462 92.7227 19.834 92.6387 20.098H86.7887C86.8727 20.686 87.1307 21.148 87.5627 21.484C88.0067 21.82 88.5587 21.988 89.2187 21.988C90.1187 21.988 90.8807 21.742 91.5047 21.25ZM88.8407 16.948C87.6647 16.948 86.9567 17.536 86.7167 18.712H90.6947C90.7067 18.196 90.5387 17.776 90.1907 17.452C89.8547 17.116 89.4047 16.948 88.8407 16.948ZM94.1627 17.686C94.1627 16.93 94.4387 16.33 94.9907 15.886C95.5427 15.442 96.2567 15.22 97.1327 15.22C98.4527 15.22 99.4787 15.562 100.211 16.246L99.4367 17.722C98.7767 17.206 98.0447 16.948 97.2407 16.948C96.9527 16.948 96.7127 17.02 96.5207 17.164C96.3287 17.296 96.2327 17.458 96.2327 17.65C96.2327 18.046 96.7427 18.376 97.7627 18.64C98.1347 18.724 98.4647 18.82 98.7527 18.928C99.0407 19.024 99.3347 19.168 99.6347 19.36C99.9467 19.54 100.187 19.78 100.355 20.08C100.523 20.38 100.607 20.728 100.607 21.124C100.607 21.916 100.307 22.546 99.7067 23.014C99.1187 23.482 98.3267 23.716 97.3307 23.716C96.6227 23.716 95.9327 23.566 95.2607 23.266C94.5767 22.954 94.1387 22.642 93.9467 22.33L94.9547 20.98C95.1827 21.256 95.5607 21.49 96.0887 21.682C96.6287 21.886 97.0907 21.988 97.4747 21.988C97.9427 22.036 98.2727 21.886 98.4647 21.538C98.6567 21.178 98.5307 20.884 98.0867 20.656C97.9067 20.56 97.6247 20.458 97.2407 20.35C96.8687 20.242 96.5207 20.134 96.1967 20.026C95.8637 19.8963 95.5391 19.746 95.2247 19.576C94.9067 19.4017 94.6399 19.1473 94.4507 18.838C94.2587 18.514 94.1627 18.13 94.1627 17.686ZM102.251 20.44V13.168H104.321V15.418H106.931V17.362H104.321V20.314C104.321 21.286 104.645 21.772 105.293 21.772C105.701 21.772 106.115 21.616 106.535 21.304L107.165 22.906C106.505 23.434 105.707 23.698 104.771 23.698C103.895 23.698 103.253 23.434 102.845 22.906C102.449 22.366 102.251 21.544 102.251 20.44ZM113.624 23.518H113.471V11.618H113.658C114.146 11.618 114.599 11.612 115.018 11.601C115.516 11.5856 116.015 11.5742 116.514 11.567C117.659 11.567 118.668 11.726 119.54 12.043C120.424 12.349 121.127 12.78 121.648 13.335C122.16 13.8637 122.554 14.4953 122.804 15.188C123.065 15.868 123.195 16.605 123.195 17.398C123.195 19.188 122.6 20.662 121.41 21.818C120.232 22.974 118.554 23.552 116.378 23.552C115.891 23.552 115.443 23.546 115.035 23.535C114.564 23.5229 114.094 23.5172 113.624 23.518ZM116.48 12.451C116.231 12.451 115.863 12.462 115.375 12.485C114.899 12.496 114.576 12.502 114.406 12.502V22.634C114.78 22.634 115.132 22.64 115.46 22.651C115.789 22.651 116.027 22.657 116.174 22.668H116.412C118.26 22.668 119.688 22.181 120.696 21.206C121.705 20.22 122.209 18.951 122.209 17.398C122.209 15.936 121.728 14.746 120.764 13.828C119.79 12.91 118.362 12.451 116.48 12.451ZM131.431 21.903L131.72 22.583C131.028 23.308 130.088 23.671 128.898 23.671C127.674 23.671 126.693 23.308 125.957 22.583C125.209 21.858 124.835 20.894 124.835 19.693C124.835 18.537 125.175 17.585 125.855 16.837C126.546 16.089 127.498 15.715 128.711 15.715C129.697 15.715 130.524 16.032 131.193 16.667C131.85 17.29 132.179 18.123 132.179 19.166C132.179 19.438 132.162 19.676 132.128 19.88H125.821C125.855 20.798 126.155 21.523 126.722 22.056C127.288 22.577 128.031 22.838 128.949 22.838C130.014 22.838 130.841 22.526 131.431 21.903ZM128.626 16.548C127.81 16.548 127.147 16.786 126.637 17.262C126.138 17.738 125.849 18.367 125.77 19.149H131.278C131.266 18.344 131.023 17.709 130.547 17.245C130.071 16.78 129.43 16.548 128.626 16.548ZM138.255 21.512C138.255 21.161 138.107 20.877 137.813 20.662C137.495 20.43 137.138 20.2572 136.759 20.152C136.351 20.027 135.937 19.892 135.518 19.744C135.106 19.5913 134.739 19.3403 134.447 19.013C134.163 18.673 134.022 18.248 134.022 17.738C134.022 17.126 134.248 16.638 134.702 16.276C135.155 15.902 135.75 15.715 136.487 15.715C137.541 15.715 138.34 15.998 138.884 16.565L138.51 17.228C137.988 16.741 137.32 16.497 136.504 16.497C136.05 16.497 135.676 16.616 135.382 16.854C135.247 16.9546 135.139 17.0856 135.065 17.2363C134.991 17.387 134.954 17.5531 134.957 17.721C134.957 18.084 135.098 18.384 135.382 18.622C135.676 18.849 136.028 19.03 136.436 19.166C136.855 19.291 137.274 19.426 137.694 19.574C138.113 19.721 138.464 19.954 138.748 20.271C139.042 20.588 139.19 20.991 139.19 21.478C139.19 22.169 138.929 22.708 138.408 23.093C137.898 23.478 137.24 23.671 136.436 23.671C135.937 23.671 135.416 23.558 134.872 23.331C134.362 23.116 134.01 22.861 133.818 22.566L134.311 21.988C134.526 22.248 134.849 22.464 135.28 22.634C135.722 22.804 136.141 22.889 136.538 22.889C137.036 22.889 137.444 22.77 137.762 22.532C138.09 22.282 138.255 21.942 138.255 21.512ZM142.708 23.518H141.824V15.868H142.708V23.518ZM141.671 12.893C141.668 12.8151 141.683 12.7376 141.716 12.6668C141.748 12.596 141.797 12.5337 141.858 12.485C141.982 12.3831 142.139 12.3288 142.3 12.332C142.447 12.332 142.578 12.389 142.691 12.502C142.75 12.548 142.798 12.6074 142.831 12.6753C142.863 12.7432 142.879 12.8177 142.878 12.893C142.882 12.977 142.869 13.061 142.84 13.1399C142.811 13.2188 142.766 13.291 142.708 13.352C142.656 13.4084 142.593 13.4529 142.523 13.4823C142.452 13.5116 142.376 13.5252 142.3 13.522C142.131 13.5263 141.966 13.4654 141.841 13.352C141.783 13.291 141.738 13.2188 141.709 13.1399C141.679 13.061 141.666 12.977 141.671 12.893ZM144.727 24.64C144.727 24.062 144.931 23.575 145.339 23.178C145.747 22.781 146.325 22.504 147.073 22.345C146.902 22.14 146.812 21.8804 146.818 21.614C146.818 21.331 146.914 21.076 147.107 20.849C146.628 20.6503 146.219 20.3128 145.934 19.88C145.649 19.4461 145.501 18.9368 145.509 18.418C145.509 17.636 145.786 16.99 146.342 16.48C146.897 15.97 147.628 15.715 148.535 15.715C149.26 15.715 149.9 15.908 150.456 16.293H150.473L152.649 15.715V16.548L151.102 16.939C151.408 17.404 151.561 17.897 151.561 18.418C151.561 19.178 151.277 19.823 150.711 20.356C150.144 20.866 149.419 21.121 148.535 21.121C148.217 21.121 147.962 21.098 147.77 21.053C147.662 21.2197 147.609 21.4157 147.617 21.614C147.617 21.874 147.69 22.079 147.838 22.226C148.268 22.203 148.506 22.192 148.552 22.192C149.719 22.192 150.648 22.407 151.34 22.838C152.031 23.268 152.377 23.869 152.377 24.64C152.377 25.4 152.031 25.989 151.34 26.408C150.648 26.838 149.719 27.054 148.552 27.054C147.373 27.054 146.438 26.844 145.747 26.425C145.067 26.005 144.727 25.411 144.727 24.64ZM145.628 24.64C145.628 25.139 145.888 25.53 146.41 25.813C146.942 26.108 147.656 26.255 148.552 26.255C149.436 26.255 150.144 26.108 150.677 25.813C151.209 25.518 151.476 25.127 151.476 24.64C151.476 24.141 151.209 23.745 150.677 23.45C150.155 23.144 149.447 22.991 148.552 22.991C147.668 22.991 146.959 23.138 146.427 23.433C145.894 23.728 145.628 24.13 145.628 24.64ZM147.005 17.058C146.813 17.2278 146.66 17.4375 146.557 17.6724C146.455 17.9072 146.404 18.1617 146.41 18.418C146.41 18.962 146.608 19.415 147.005 19.778C147.401 20.141 147.911 20.322 148.535 20.322C149.158 20.322 149.668 20.141 150.065 19.778C150.461 19.415 150.66 18.962 150.66 18.418C150.66 17.874 150.456 17.421 150.048 17.058C149.651 16.695 149.147 16.514 148.535 16.514C147.934 16.514 147.424 16.695 147.005 17.058ZM155.05 23.518H154.166V15.868H155.05V16.939C155.367 16.588 155.775 16.299 156.274 16.072C156.754 15.8518 157.275 15.736 157.804 15.732C158.869 15.732 159.668 16.01 160.201 16.565C160.733 17.12 161 17.982 161 19.149V23.518H160.116V19.319C160.116 17.483 159.277 16.565 157.6 16.565C157.112 16.565 156.636 16.678 156.172 16.905C155.74 17.0953 155.357 17.3799 155.05 17.738V23.518Z" fill="#2B2D32"/>
</svg>
